# xmcd CD database file
#
# Track frame offsets:
#	150
#	11614
#	38215
#	60834
#	85426
#	96211
#
# Disc length: 1655 seconds
#
# Revision: 0
# Processed by: cddbd v1.5.2PL0 Copyright (c) Steve Scherf et al.
# Submitted via: CDex 1.70beta2
#
DISCID=3f067506
DTITLE=Carl Seleborg - Ce Mois d'Avril
DYEAR=2005
DGENRE=New Age
TTITLE0=Mouvement I
TTITLE1=Mouvement II
TTITLE2=Mouvement III
TTITLE3=Mouvement IV
TTITLE4=Mouvement V
TTITLE5=Mouvement VI
EXTD=YEAR: 2005
EXTT0=
EXTT1=
EXTT2=
EXTT3=
EXTT4=
EXTT5=
PLAYORDER=
